<svg width="32" height="32" viewBox="0 0 32 32" fill="none" xmlns="http://www.w3.org/2000/svg">
<g id="Cart1">
<path id="Vector" d="M11 27C11.5523 27 12 26.5523 12 26C12 25.4477 11.5523 25 11 25C10.4477 25 10 25.4477 10 26C10 26.5523 10.4477 27 11 27Z" stroke="black" stroke-width="1.5" stroke-linecap="round" stroke-linejoin="round"/>
<path id="Vector_2" d="M25 27C25.5523 27 26 26.5523 26 26C26 25.4477 25.5523 25 25 25C24.4477 25 24 25.4477 24 26C24 26.5523 24.4477 27 25 27Z" stroke="black" stroke-width="1.5" stroke-linecap="round" stroke-linejoin="round"/>
<path id="Vector_3" d="M3 5H7L10 22H26" stroke="black" stroke-width="1.5" stroke-linecap="round" stroke-linejoin="round"/>
<path id="Vector_4" d="M10 16.6665H25.59C25.7056 16.6666 25.8177 16.6266 25.9072 16.5533C25.9966 16.48 26.0579 16.378 26.0806 16.2646L27.8806 7.26463C27.8951 7.19206 27.8934 7.11717 27.8755 7.04536C27.8575 6.97355 27.8239 6.90662 27.7769 6.8494C27.73 6.79218 27.6709 6.74609 27.604 6.71446C27.5371 6.68283 27.464 6.66645 27.39 6.6665H8" stroke="black" stroke-width="1.5" stroke-linecap="round" stroke-linejoin="round"/>
</g>
</svg>
